# xmcd
#
# Track frame offsets:
#   150
#   15942
#   44184
#   55642
#   68119
#   79786
#   93515
#   105684
#   118481
#   130508
#   141934
#   156421
#   196813
#   224798
#   239535
#   280776
#   295577
#
# Disc length: 4114 seconds
#
# Revision: 0
# Processed by: cddbd v1.5.2PL0 Copyright (c) Steve Scherf et al.
# Submitted via: uFREEDB ActiveX Control 1.5
#
DISCID=00101011
DTITLE=17 - 017
DYEAR=1900
DGENRE=Alternative
TTITLE0=171
TTITLE1=172
TTITLE2=173
TTITLE3=174
TTITLE4=175
TTITLE5=176
TTITLE6=177
TTITLE7=178
TTITLE8=179
TTITLE9=1710
TTITLE10=1711
TTITLE11=1712
TTITLE12=1713
TTITLE13=1714
TTITLE14=1715
TTITLE15=1716
TTITLE16=1718
EXTD=
EXTT0=
EXTT1=
EXTT2=
EXTT3=
EXTT4=
EXTT5=
EXTT6=
EXTT7=
EXTT8=
EXTT9=
EXTT10=
EXTT11=
EXTT12=
EXTT13=
EXTT14=
EXTT15=
EXTT16=
PLAYORDER=
